<svg xmlns="http://www.w3.org/2000/svg" width="256" height="256" viewBox="0 0 100 100"><rect width="100" height="100" rx="20" fill="#000000"></rect><path fill="#ffffff" d="M73.50 37.25L73.50 62.75Q73.50 69.15 70.35 74.55Q67.20 79.95 61.80 83.10Q56.40 86.25 50 86.25L50 86.25Q43.60 86.25 38.20 83.10Q32.80 79.95 29.65 74.55Q26.50 69.15 26.50 62.75L26.50 62.75L26.50 37.25Q26.50 30.85 29.65 25.45Q32.80 20.05 38.20 16.90Q43.60 13.75 50 13.75L50 13.75Q56.40 13.75 61.80 16.90Q67.20 20.05 70.35 25.45Q73.50 30.85 73.50 37.25L73.50 37.25ZM30.10 37.25L30.10 62.75Q30.10 66.15 31.40 69.75L31.40 69.75L66.70 26.65Q64 22.45 59.60 19.95Q55.20 17.45 50 17.45L50 17.45Q44.60 17.45 40.05 20.10Q35.50 22.75 32.80 27.30Q30.10 31.85 30.10 37.25L30.10 37.25ZM69.90 62.75L69.90 37.25Q69.90 33.85 68.60 30.25L68.60 30.25L33.30 73.35Q36 77.65 40.40 80.15Q44.80 82.65 50 82.65L50 82.65Q55.40 82.65 59.95 79.95Q64.50 77.25 67.20 72.70Q69.90 68.15 69.90 62.75L69.90 62.75Z"></path></svg>